<mxfile host="app.diagrams.net" agent="Mozilla/5.0 (Windows NT 10.0; Win64; x64) AppleWebKit/537.36 (KHTML, like Gecko) Chrome/127.0.0.0 Safari/537.36" version="24.7.5">
  <diagram name="第 1 页" id="HTvTjgGHZewN67WrwBLT">
    <mxGraphModel dx="1877" dy="1691" grid="1" gridSize="10" guides="1" tooltips="1" connect="1" arrows="1" fold="1" page="1" pageScale="1" pageWidth="827" pageHeight="1169" math="0" shadow="0">
      <root>
        <mxCell id="0" />
        <mxCell id="1" parent="0" />
        <mxCell id="Z5Ah05NcUt1ueV7QOjjv-1" value="增长" style="rounded=0;whiteSpace=wrap;html=1;" parent="1" vertex="1">
          <mxGeometry x="40" width="120" height="60" as="geometry" />
        </mxCell>
        <mxCell id="Z5Ah05NcUt1ueV7QOjjv-2" value="增长量" style="rounded=0;whiteSpace=wrap;html=1;" parent="1" vertex="1">
          <mxGeometry x="210" y="50" width="120" height="60" as="geometry" />
        </mxCell>
        <mxCell id="Z5Ah05NcUt1ueV7QOjjv-3" value="增长量比大小：大大为大否则百分化" style="rounded=0;whiteSpace=wrap;html=1;" parent="1" vertex="1">
          <mxGeometry x="390" y="50" width="120" height="60" as="geometry" />
        </mxCell>
        <mxCell id="Z5Ah05NcUt1ueV7QOjjv-7" value="" style="edgeStyle=orthogonalEdgeStyle;rounded=0;orthogonalLoop=1;jettySize=auto;html=1;" parent="1" source="Z5Ah05NcUt1ueV7QOjjv-6" target="Z5Ah05NcUt1ueV7QOjjv-3" edge="1">
          <mxGeometry relative="1" as="geometry" />
        </mxCell>
        <mxCell id="Z5Ah05NcUt1ueV7QOjjv-6" value="" style="shape=image;verticalLabelPosition=bottom;labelBackgroundColor=default;verticalAlign=top;aspect=fixed;imageAspect=0;image=data:image/png,iVBORw0KGgoAAAANSUhEUgAAAQAAAABVCAYAAACmRjqWAAAAAXNSR0IArs4c6QAAAARnQU1BAACxjwv8YQUAAAAJcEhZcwAAEnQAABJ0Ad5mH3gAAABfaVRYdFNuaXBNZXRhZGF0YQAAAAAAeyJjbGlwUG9pbnRzIjpbeyJ4IjowLCJ5IjowfSx7IngiOjI1NiwieSI6MH0seyJ4IjoyNTYsInkiOjg1fSx7IngiOjAsInkiOjg1fV195V+bswAAGEJJREFUeF7tnQW4FFUbgA/YLaKInWACBhggooAoKoqYoKLYBXahYisKJmAHoKAgNmGLgih2gAoGYKGo2IHB+c/7MWc9d+7s3tkL97L3n+99nnl2J3bu7sz5+jtza82dO9caRVEySe3oVVGUDKIKQFEyjCoARckwtawjeq8oSsZQD0BRMowqAEXJMFoGVJQMox6AomQYVQCKkmFUAShKhlEFoCgZRvsAFCXDqAegKBlGFYCiZBjtA1CUDKMegKJkGFUAipJhVAEoSoZRBaAoGUb7ABQlw6gH8H/Mc889Z1544YVobR7nnnuu+eSTT6I1Yz766CMzZcoUM23aNPP555/L+99//z3aO48ff/wxelee+L6//vqr3OeV0kU9gBIDgRozZozZaqutzGeffWZWWGEF2c5r//79zaRJk2Q9ibZt25rzzjsvWjNmxx13NPvss4859dRToy3GLLvssmbUqFGmVatWIvzNmzc3tWrVMr/++qtZfPHFzU8//WSef/55s9NOO8nxKAXO261bN/P333+bevXqiQLZYIMN5HXppZc2q622mhzL+qxZs8yKK65orr/+etmmlDbaB1BiTJ061XTo0MEsueSS5tNPPzVbbLGFWWKJJcxhhx1mbr31VnP22WfnhDNk0KBBZuLEieaee+6R9ccff9w88MADZs011xTh9XC+2267zay33nrm559/Nqeffrp5/fXXzT///CP7USCdOnXK/Q2+zx577GEefPBBs9hii5lFF11UrDzKwr96WH/yySflewwbNizaqpQy6gGUMC1atBCh33zzzWV9hx12MPvvv785+eSTxVJfc801plevXiKUp5xyivn+++9zCgCFgfDOmTPHbLTRRrIN3nrrLbPGGmuY0047TYSXc73//vvRXiMKAQUUKoBddtnF9O3b13zwwQfiiaAIPCgRBH/55ZeX83355Zfm448/VgVQQ6iN/OtSustvv/2WuB13HGFH+JL2Dxw40Bx88MHmkEMOMUOHDs0tf/75p7ngggvM7rvvLkJbu3btxM+Hy1JLLSVWHWEnJMAz8ct3330n27/44gtZHzt2bOI5dCnNRZOAJU7oYof88ssvZvbs2dFaMiTjsPj3339/biHe95AD4BwoitatW8tC2BCy1lprmZtvvlnCgDTLZZddZi688MLo00qpowqgxMHVT8J7BljwfCyzzDLyedxyv5DsCyH2R2A7duxoevTokQsX+Nxee+1lWrZsac4444yilq5du5qmTZuawYMHy7mU0kVzACXISSedZCZPnmzefPNNybqTyGPbddddl8sBsP+qq67KCVk8BwBXX321xOthFaBBgwbmjjvukCrAkCFDzKWXXmo+/PDDaG/5HAAQ0+Nx/PHHHxIOcPyGG24o28G/X3vttc3MmTMlV1G/fn3Zp5Q26gGUIJTmENIDDzzQ3HnnnaZPnz6mffv2oggosQGhwaqrrirvAUsdrsPcuXPl+Mcee0ySifQFULZDiGG55ZYz66yzjrz3rLzyyrn9QFnyxBNPNM8++6x59dVXzbhx48STmDBhQs6r8O9fe+018+6770qZUakZqAegKBlG+wBKGNz9e++9V/oAwMfqW265pXniiSekUWizzTaTcuEjjzwiCb0jjjhCjoXhw4dLw87WW28dbZkXFuy3335m/fXXF7f94YcfzjUbARacEiH7PYQKu+66q1QcfE6CagCWn9CE8qAvA9JRSO6BEEMpfdQDKGFQAMT0NAUB8TU5AQSfrkCEktbd7t27S1KQ0qAPEcjm45avssoqZpFFFpFtQOafbcT4lO7oLCR/4KG3AIUR5gAIRUgQIvQeFAt/j+/Eq4cuwgMOOMC0adMm2qKUMgX7AND4N910U7ntJKOo/ca3Y5WStvuF9tCk7bokLwgwHX3E1DTikFgja0/ijvge4fv333/lWGJ7LDntv6wj3AgmFp1mHoT35ZdfFitNQo/l0Ucfldbg+N8M11loJ6ZbkHP4hbwCyUg/h8AvJARZ4ueoaQvXmd/Ia7ide0ElJdxGIxUKN9zmFz6PsiaXkrS/MgtKn5Ju0r5il4IhAHVkrAyJnxBaSfkCuJ24fsDFYmAyYJMywN98843ZfvvtpVmkIm644QYZXCFknklGFcMtt9wiWe+aBAJ11FFHyXtc+o033ljeY4G5fscee6x56qmnRKgJCUj8hdcK6/3GG29Ea8bsvffektlv3Lix2Wabbczhhx9uevbsKQpg2223lcQeSsATrwJwDeO9AUDycPTo0RKCJIGR4G/WVFCE9EDw6uc6wDHHHGO+/vprCa/wzGiswuMhcXvOOedER/0Hx66++uritZHEzQcdm1deeaU566yzRJkXAqXOPZoxY0a0pfIsGr2mgh+BV4CVwVV86aWXRMDYRixIvIp2JLZkYJJlTgsXAA/iiiuuEBd1t912K9PCSuzJRBP+pv8eHpQQnoeHdS4kg7ymgWBxDTbZZBMp4fmMPBYYZYBCxuKwj3UULw04gED6fAEdeoQQjRo1khwBYQBNQXyGMILPsz0U/iRQGF26dInW/oOJPy+++KK57777ciEK98jnE/h7vmxYHXD/vTFaEJDHoKzpQRmzoJwReF+i5RogkJdccomM+5VWWkmWtPzwww9yDRF++i7w6ICQ7uKLL5b3SfB7ub/M6UiCWZ916tSJ1vJTMAcQ9wAYTHGNz4/G5QvBQpFcChNBDEgsTjgV1YNLQzcaJSgsFu2rceVBKyoWkK40yk1hQwsa9quvvorW5q3j3mK5mFVX0yEMY5IOSvaiiy7KxfSEADTe+EEDDCQGBfeEOJzPxnMADC7mCjDwNt10U9mGd4W7iqeGdWO+AOVH7gOhBIKMQPvZgFzjV155RV5R1GzjGNbh22+/lXwE37mqwWtizIwYMaKMtQ5hLB9//PHimaQRUCw/FptxxTk5PxaX6wJcC8YhxtDDsTvvvHMZwcUD4POER6EHgOeAB3355ZeL0uT+Uur1YODGjx8frZUF75vx7z3FJJCVVMoXBZCEG1x2+vTp1rmU1g0K67S7dQrAOktkr732Wll3F9U67W8nT54snxkzZoxsd0rCDhkyRLZ5nDW2zqpFa9a6C2OdpbMtW7a0zlW0AwcOtG4ARnvL4wabnNe5vqkWpx2tc4WjT9ds+B3OUkRr6XAxp3WCG62VxXlbcr1DOJ7FWZZoy7zjuCecx7+CG7zyCv59uA3C46sDZ3Bss2bNrBPcaMt/MPacl2T79u1rnbKMthbGWXvrPADrhFrWnWGyztuSczjhk7+z5557yj7WR40aZV34a3v16iXbPMgRYuYUgKy7ENj279/fOkVinbKwTz/9tHXCLvviuLDXOmGP1ubhvDjrPB07cuRIWX/ooYes80DkPXAd3nnnnWitYhIbgdD4lJsOPfRQiSfJAr/99tvSdoqGx/J47YMmIyGFxT3//PPFugDnCMG6eEuFd8C0VDwLp0yM+8JikUJLFQfXlfjXXTCZcsr3wqXlPaEDXgfvCQ94xYVO4wLVBPBifHY/LVgVZgkmQSKQ6x3C8Syh58Vx3BPO41/Bhxng34fbIDy+OmC84vbiQTI+PYxHXHa8UfIbhVqnAcuKtSfGZizhZjOufahELooyqQdPoHPnzjKGK+Luu++WcU/YQKMXjVk8ayGcXRmCR4wHx73id+CxtWvXTh7ywudIDBOi4d0QQiOTdIcW04WZNwTgpPw4p+Xki+JONGnSRNxq3CDcFy4OU1XZxhdlair72HbmmWeWGWS4QrgluGuc97333pOEVSGh9+C2hTe1WEigJSVgiFl97MgFBAYy28JX9uPS8sq6j3OV0gNDxIQkxidjkVmPjDtc7IqE34Ow4c4jrMT6jB3GMy46eROSfayjCAjBEOy77rpLcjCEBflCAPJiGK7tttsu2lsxVA+QMypo9G9gSPfdd19RBoQJlF0xjvRkIIO33357UXmXgjkAhPSEE07I5QAQbLyBhg0byjpfgIkfxIpkTD1cFG6Cj8s8aGhi1LQwcw3tTfwfxvzF4lzDxARRv379jHOhJI4jYcil4DhuPpaQOJBXBhJ5CrwfbsCNN94YnUEpRXxsjaBgcEiq1q1bN9qbDnJWCBYygAAT2zOOfFMVyTuEjWSzB2VBQhQFQHIWQ4cAH3fccWbAgAGpvwMWPMyfYfyQAbwcIAdApYz2bqDaQmKYsRrKYRoKlgFJ8qDpvAKgZIS7jyuPxskHVp3mFDTu0UcfLe44ySXqoSgFn92nz50QIl95D3eLYwANyk2Iu8JYbiw1lYMQLDYlyYpKUSgxXN205Due74olAH4v3XH+d+MKU8EI9/HUHZSP3wb+M7zGIZxBAbOP87EeHh++egjDGIAcjyViH4OJZK4/lv3rrruuJLh82MY+vBwy4byyjtXCVWVMxMO7fNBNSD8C12x+IKlJ+a0YC041BWXOHIZ8mfJCcF3wAOidQAFgaanEVATlQLwEvE6EEcOCMaT0imEBxgqlPq4/CcmwEoPSYB9GFFBmGE2UEQlwvGoMEc90wCgS8rCde4KxpBRPQp17l4aCCgCNRo3ZKwAEn0dDVQQlvLjFTeoDmD59ulQZUCwVudVoQC4sFjgEbUhMxEUIQfGQ9a2uKgAeAh6DUjUw2SlfrBxC6Ep/BIaC8YplxH0udnYi9zLsA8BQYdWpgrEwG5NtWHxfIUEp+yqIB8XLtrAPgFCBvALylQ8MG4aRPBfCjvGjN4O/G1YekCEUCOVxvB1avfFeCMvTKIGCCoCnu/DHvQLgR1I2IixIgguOtuKhlmjCECwMAoxFCOFctJWSoCkEPxQXDOUSWjxcMS6sr9n6fSQGSQYWUgB8Fx/7p4UcQFI+QSkNCDMRAJrVGI+EpySwaWgqJikcVwBYb0Jf8gAIGl4FyoUwFc8EC4xsxA1kkgLAiB100EHiefXu3TsxWYqs4TF369ZNkoGEp3i6Ht8shxIaPHiweEgYUdYJbf16RRTMAVAfZnJJqAB4Ply++iTgotA4gmUPwaWiDwBLGUIiDiEloVKo0y/0AOg94HzAd8T1pgrgt+N6kjjh5hdSACRzuJnFgALipiilB/eTJBuVohAEiTFMMjluofOB4COwCL5XAFQGGPtJSTa2I8wjR46MtswjTAKGhgPlgSwx0Sqcd5GWeMdnZSnoAUydOlWaSYgtsKxoN7RgUmeYB/cGF4yMZUhSCODBiuMFUEUIJ6aEELvSaYhWI6ZEuwOCz+cph/jtxOjERyQo43PkswTXgOsRWgIeGsI2GnpC8m0HzoOLGVfq8wvnpGFpQdwjjAChIIkxvLQQrDPlMcJFchgVdT+C9wCwpniSGBN+P7IQPlbNwxhESSQpgLgH4CEXQFId7wTZCEGhsI8xjdEjpPYeAO+5X+QoOD/vgdwBv5WFsmTYyZiPRA+AOAP3ghPT6suPxl0h9sENL/TMd2IQ4m8scAhuGYkkrLRfRzPjMXh3CuH3tc94so/ySpK15nwkaPibSfDdSwEUFTXc6gSFSc0Zd9hDvuXII4+UMpJ/2jCQmEUBk0CKw7EodQxCRdDjQfiXRqjp6+DeJ/XQFwtjh3A1X6Yd15i4m8pAXNhCyCHQvchvxVgh9FwTDBQeKMKa1KuPMmOMVuQBIFv0vhAqo2xZp4+ANmCShR4En30kNPnuVKJQSsB7jh8+fLjIie+u5bf78j3fNU05MFEBoPGx9ghx+GM5MY974g/HQSux8GPoTWeQhaDFcFvIfPPIaLL7CCetrV5jc35uElNgcbO5WUxgAfIK9FzH4cKSnWXGWhw0dVimWVig0Bg4Sd8/DT4OTZsF98QVAOEW3gA1a5Q434eBxiPD2IcVZQDFY8c0CoA4mwFMYou+EQwG4BFyj+LVAEpW/B2y1lhnrCFgndnuBztKKW1Ge0FA1p77RbWK7+G9Baw72xiHjGW+k7+eQLae5p58CgADwHUnqUdCj9/sE+V418wlIEzB6lMB4DOFWGAhQJICyAcCikJAK/ov70FLkZ3EquOGxd1FtBk5ABIl/EAUSb54DDeNxAaKAYVAotC7OXFwi7g5lEnywd8jdl8YkJPAa0IbV0YB4PXwABAGkp90k5ZQAZCE5RqQTaeEiwfGQCS5yvXGFad0huAh8LiXHtxRkkp4aXFwNZkYRoacqgtW3Qs/EOPSnBOHRC1KkfiXe4cQxME7QEEUU6atKhhjWF6Sd1wHys5cK7YB3gJjO64A8AwY6/xeEt14E/nuI5/FINK0lGTQQhaUAqCub9MuTgHYnj17Sp93fJ9TAPLqfqR12rDcfmcBrAsPcsdVtLg4JrfQlz0/i3OjEv9GVS/PPPOMda61dUrMOnc78ZiKFq6bc6dl3kXS/kKLU6LWhUby3g1g64Rc5lQ4CydzNpwXZp2AyTVy7qt1lts6ZSuv4XnoP2cehl+nt94pF+s8NPl9PXr0sLNmzSrzGb84qy898vyNcLtTSrZVq1Yy/4B1eunD+0QP/JQpU3LrC3txhsa6cFV+Zzi2/ML8E+f1lvucM1x26NChqe9fWvno0KFD4vZil6IUgC7pFiZ8dO/e3TZp0sQ6t1CWyioAJno4PV2UAnDupm3Tpo0IbYMGDeQ9yshZdTt27Fj5LpMmTbIu1JLJLXwGQWbdhQPlFMDEiROts27y3llt+TwTuAYNGiQKOjw2viDULj63LpSTCWBsc66wdd6idV5Ibt250jKJBeXi4mPrvB7rwooy59JlwS/FBZVKKogjqe3i/oXP6KsMdIoVmyUnFCOmpBuTHApNIbiMQFmUCg1uv4fyGNUe4s+KoPOMfABlWSaLVTSXg9CHpBelWRLEvOfzhHQkRUn68n8NyS/QoUj4SAcneYSa/ECRmkJROQClcoRJt2IhzkR4idXnJwdAjE2MyvmIZ5nYRSaa8iw9GMTyxKrE+mTUURQ0UwHHUAZj9llaSJ4xESeEZCC5I5Jo5HfIF5FUY24FcT5xsn9CEd9VqXoK9gEoC4a0CgDBJJkagmVEkEg8JSXDSJQl1aUBBcAz7EjqYXGx3lRe3D0XhUKdmPcoFrL/CB4VICo5CCmNKh6y+GEdm/NxTD7vhHNjxT1Ujsh845VQXcILoCpAko+KEIqK70kJjoQxlaCa9ji3GgkegFK1kGzjYSoV0aVLF4nTnfWVhJ0TbonfuU2dOnWS7c59z+3ngRUkjfJBTN+xY8dorfLMmDGj3PcfMGCAbd68ed6HWXiI67t27Sox/ejRo+24cePkXPXq1bO9e/e2bdu2lcWFTPIb+T0uZJHrQAKz0O9T5h9VANVAWgXAYKfSwivJM2eN5ZWEm9/uj/P7C4ECaNasWbRm7bBhw0TwUCBJS8OGDW2/fv2io//DJwFDqAQ5z8SOGDEi2pIMQs4TpPj+MHPmTEnysUyYMEESfWTKnUdiXQgiGXUgYYjiIPmpVB2qAKqBtAogCaxv3bp1cwJUDCgAPAgP62T588Fj3KgKxEFoUUJxxo8fb11YII+MqwwuLLCtW7eO1pSFgeYAqoH5SQLS5klTDs83qEwSkK5L4m7+AQitp7Tq5kvmEaMTd8dnZtILT2IwqVmH2J7z04ef1IzFwzGcxxKtlYXuP+bbF5pcRUNZZSbLKOlQBVAN0Hnn53YXC8k6OgGZDJVWATDxhGw62X/KdQgRZT7aVxF+/0SnOP4ZeHEFgBKiMy1UYFQQeAYdHXEoAaoHCDtdm+G8faaUkyxMgsQf7bN0feaDDsWws1BZwKAAdKnaZX4agSrTCciTYkkokkzznXYsdAb6xp+khe6+Pn36lNtOnE9DEU06hAk09XTu3Fnidn/MtGnTbIsWLawTVunyc8qkzDmSFnIS7du3T9ynS/Us6gFUA5T3CAFohCkWaudYZHrq0zwRpxCEBEzYyTdNlPkGzM6MewCU57D2uOJMUmGmaKNGjaK9ZaHvn3nxTPZhAkwhaFDCC2DKrbJwUAWQIZixRj8Bk3aS8A9wjU+tJvbnkWu4/Wlm5lHfd+OqwpCFmYLkF3i6jbJw0E7AjBFv6Akhz0BMn/SIKuX/E1UAipJhdDKQomQYzQEoSoZRD0BRMowqAEXJMKoAFCXDqAJQlAyjZUBFyTDqAShKhlEFoCgZRvsAFCXDqAegKBlGFYCiZBhVAIqSYVQBKEqG0T4ARckw6gEoSoZRBaAoGUb7ABQlw2gOQFEyTLV4APzHWf6DbfhE2dmzZ8u2OnXqyOOo69evH+1RFKW6SFQAc+bMMR07dozW0oEA83hn/v97HP69dePGjeV58R7+HRQKoVevXqZp06byH2LatWsX7VUUpeox5n8UXd8ji5qCIQAAAABJRU5ErkJggg==;" parent="1" vertex="1">
          <mxGeometry x="194.7" y="55" width="150.59" height="50" as="geometry" />
        </mxCell>
        <mxCell id="Z5Ah05NcUt1ueV7QOjjv-8" value="基期比重：&lt;br&gt;A/B*(1+b)/(1+a)" style="rounded=0;whiteSpace=wrap;html=1;" parent="1" vertex="1">
          <mxGeometry x="210" y="160" width="120" height="60" as="geometry" />
        </mxCell>
        <mxCell id="Z5Ah05NcUt1ueV7QOjjv-12" value="" style="edgeStyle=orthogonalEdgeStyle;rounded=0;orthogonalLoop=1;jettySize=auto;html=1;" parent="1" source="Z5Ah05NcUt1ueV7QOjjv-9" target="Z5Ah05NcUt1ueV7QOjjv-11" edge="1">
          <mxGeometry relative="1" as="geometry" />
        </mxCell>
        <mxCell id="Z5Ah05NcUt1ueV7QOjjv-9" value="两期比重：&lt;br&gt;A/B*(a-b)/(1+a)" style="rounded=0;whiteSpace=wrap;html=1;" parent="1" vertex="1">
          <mxGeometry x="210" y="250" width="120" height="60" as="geometry" />
        </mxCell>
        <mxCell id="Z5Ah05NcUt1ueV7QOjjv-10" value="占比" style="rounded=0;whiteSpace=wrap;html=1;" parent="1" vertex="1">
          <mxGeometry x="40" y="210" width="120" height="60" as="geometry" />
        </mxCell>
        <mxCell id="Z5Ah05NcUt1ueV7QOjjv-11" value="判升降后选小" style="whiteSpace=wrap;html=1;rounded=0;" parent="1" vertex="1">
          <mxGeometry x="410" y="250" width="120" height="60" as="geometry" />
        </mxCell>
        <mxCell id="Z5Ah05NcUt1ueV7QOjjv-13" value="" style="whiteSpace=wrap;html=1;" parent="1" vertex="1">
          <mxGeometry x="210" y="-60" width="120" height="60" as="geometry" />
        </mxCell>
        <mxCell id="yiw3E5B7QqdanoLgcR7H-1" value="平均数:A/B 平均数增长率 (a-b)/1+b，&lt;div&gt;&amp;nbsp;平均数增长量&lt;span style=&quot;text-wrap: wrap;&quot;&gt;A/B*(a-b)/(1+a)&lt;/span&gt;&amp;nbsp;&lt;/div&gt;" style="text;html=1;align=center;verticalAlign=middle;resizable=0;points=[];autosize=1;strokeColor=none;fillColor=none;" parent="1" vertex="1">
          <mxGeometry x="430" y="-50" width="220" height="40" as="geometry" />
        </mxCell>
        <mxCell id="gVCM04zoc-9TcHvLSZzx-1" value="增长贡献率=部分增长量/整体增长量" style="text;html=1;align=center;verticalAlign=middle;resizable=0;points=[];autosize=1;strokeColor=none;fillColor=none;" parent="1" vertex="1">
          <mxGeometry x="365" y="-112" width="210" height="30" as="geometry" />
        </mxCell>
        <mxCell id="gVCM04zoc-9TcHvLSZzx-2" value="年均增长率：(1+r)^n=A/B" style="text;html=1;align=center;verticalAlign=middle;resizable=0;points=[];autosize=1;strokeColor=none;fillColor=none;" parent="1" vertex="1">
          <mxGeometry x="365" y="-160" width="160" height="30" as="geometry" />
        </mxCell>
        <mxCell id="gVCM04zoc-9TcHvLSZzx-3" value="同比增量：比较增长量大小" style="text;html=1;align=center;verticalAlign=middle;resizable=0;points=[];autosize=1;strokeColor=none;fillColor=none;" parent="1" vertex="1">
          <mxGeometry x="560" y="65" width="170" height="30" as="geometry" />
        </mxCell>
        <mxCell id="gVCM04zoc-9TcHvLSZzx-4" value="中位数：奇数9为5，偶数8为 4和5的均值" style="whiteSpace=wrap;html=1;" parent="1" vertex="1">
          <mxGeometry x="40" y="360" width="120" height="60" as="geometry" />
        </mxCell>
        <mxCell id="gVCM04zoc-9TcHvLSZzx-5" value="间隔增长率：r1+r2+r1*r2" style="text;html=1;align=center;verticalAlign=middle;resizable=0;points=[];autosize=1;strokeColor=none;fillColor=none;" parent="1" vertex="1">
          <mxGeometry x="370" y="-212" width="160" height="30" as="geometry" />
        </mxCell>
        <mxCell id="gVCM04zoc-9TcHvLSZzx-6" value="给了20年和20年到18年，求19年；2年的平均增长率也算间隔增长率" style="text;html=1;align=center;verticalAlign=middle;resizable=0;points=[];autosize=1;strokeColor=none;fillColor=none;" parent="1" vertex="1">
          <mxGeometry x="550" y="-212" width="380" height="30" as="geometry" />
        </mxCell>
        <mxCell id="CemZuclClHYgED9WdzQw-1" value="年均增长量=(现-基)/年份差" style="whiteSpace=wrap;html=1;" parent="1" vertex="1">
          <mxGeometry x="210" y="340" width="120" height="60" as="geometry" />
        </mxCell>
        <mxCell id="e1JVcgHmtpoTOXpImttJ-1" value="增幅就是增长率" style="text;html=1;align=center;verticalAlign=middle;resizable=0;points=[];autosize=1;strokeColor=none;fillColor=none;" parent="1" vertex="1">
          <mxGeometry x="345" y="388" width="110" height="30" as="geometry" />
        </mxCell>
        <mxCell id="e1JVcgHmtpoTOXpImttJ-2" value="&lt;font color=&quot;#cc0000&quot;&gt;百花分，r&amp;lt;0则是 n-1&lt;/font&gt;" style="text;html=1;align=center;verticalAlign=middle;resizable=0;points=[];autosize=1;strokeColor=none;fillColor=none;" parent="1" vertex="1">
          <mxGeometry x="580" y="95" width="130" height="30" as="geometry" />
        </mxCell>
        <mxCell id="e1JVcgHmtpoTOXpImttJ-3" value="相同分母，占比比较，A分子20占比20%，B分子10求占比。&lt;div&gt;传统就是求出总占比。&lt;/div&gt;&lt;div&gt;但其实可以，用分子的倍数来求占比 20/10 = 20%/b&lt;/div&gt;" style="text;html=1;align=left;verticalAlign=middle;resizable=0;points=[];autosize=1;strokeColor=none;fillColor=none;" parent="1" vertex="1">
          <mxGeometry y="480" width="340" height="60" as="geometry" />
        </mxCell>
        <mxCell id="e1JVcgHmtpoTOXpImttJ-4" value="增长量同比增速超过50%的年份，可以用基期*1.5&amp;lt;现期" style="text;html=1;align=center;verticalAlign=middle;resizable=0;points=[];autosize=1;strokeColor=none;fillColor=none;" parent="1" vertex="1">
          <mxGeometry x="-10" y="570" width="320" height="30" as="geometry" />
        </mxCell>
        <mxCell id="e1JVcgHmtpoTOXpImttJ-6" value="求总数大于某个数，可以利用平均数" style="text;html=1;align=center;verticalAlign=middle;resizable=0;points=[];autosize=1;strokeColor=none;fillColor=none;" parent="1" vertex="1">
          <mxGeometry x="-10" y="638" width="220" height="30" as="geometry" />
        </mxCell>
        <mxCell id="RAjFajd8suXD8HvhYq43-1" value="多5倍，是现/基=6，而不是5" style="text;html=1;align=center;verticalAlign=middle;resizable=0;points=[];autosize=1;strokeColor=none;fillColor=none;" parent="1" vertex="1">
          <mxGeometry x="385" y="490" width="170" height="30" as="geometry" />
        </mxCell>
        <mxCell id="RAjFajd8suXD8HvhYq43-2" value="2016-2020年年份差是4不是5，十二五期间年份差是5" style="text;html=1;align=center;verticalAlign=middle;resizable=0;points=[];autosize=1;strokeColor=none;fillColor=none;" parent="1" vertex="1">
          <mxGeometry x="350" y="355" width="300" height="30" as="geometry" />
        </mxCell>
        <mxCell id="PmT9kRilfWst_Rljmmti-1" value="19年...占...的比重为" style="text;html=1;align=center;verticalAlign=middle;resizable=0;points=[];autosize=1;strokeColor=none;fillColor=none;" parent="1" vertex="1">
          <mxGeometry x="380" y="175" width="130" height="30" as="geometry" />
        </mxCell>
        <mxCell id="PmT9kRilfWst_Rljmmti-2" value="混合增长率、线段法" style="text;html=1;align=center;verticalAlign=middle;resizable=0;points=[];autosize=1;strokeColor=none;fillColor=none;" parent="1" vertex="1">
          <mxGeometry x="370" y="-260" width="130" height="30" as="geometry" />
        </mxCell>
        <mxCell id="PmT9kRilfWst_Rljmmti-3" value="福建21年110、119" style="text;html=1;align=center;verticalAlign=middle;resizable=0;points=[];autosize=1;strokeColor=none;fillColor=none;" parent="1" vertex="1">
          <mxGeometry x="535" y="-260" width="120" height="30" as="geometry" />
        </mxCell>
        <mxCell id="omtQCVq8to7Whv7b37_5-1" value="A/B - 基期A/基期B" style="text;html=1;align=center;verticalAlign=middle;resizable=0;points=[];autosize=1;strokeColor=none;fillColor=none;" parent="1" vertex="1">
          <mxGeometry x="570" y="258" width="120" height="30" as="geometry" />
        </mxCell>
        <mxCell id="XeMVIHHSxNXB2-80rpeW-1" value="利润率=利润/收入" style="text;html=1;align=center;verticalAlign=middle;resizable=0;points=[];autosize=1;strokeColor=none;fillColor=none;" parent="1" vertex="1">
          <mxGeometry x="365" y="-300" width="120" height="30" as="geometry" />
        </mxCell>
        <mxCell id="Hamw0pD1lwJg9Ijkr4-3-1" value="翻4番：&amp;nbsp;2^n，2^4 = 16" style="text;html=1;align=center;verticalAlign=middle;resizable=0;points=[];autosize=1;strokeColor=none;fillColor=none;" vertex="1" parent="1">
          <mxGeometry x="365" y="-350" width="150" height="30" as="geometry" />
        </mxCell>
      </root>
    </mxGraphModel>
  </diagram>
</mxfile>
